# xmcd
#
# Track frame offsets: 
#        150
#        18060
#        36455
#
# Disc length: 827 seconds
#
# Revision: 2
# Processed by: cddbd v1.5.2PL0 Copyright (c) Steve Scherf et al.
# Submitted via: ExactAudioCopy v1.3
#
DISCID=1a033903
DTITLE=Gomez - Bring It On (single)
DYEAR=1999
DGENRE=Avantgarde
TTITLE0=Bring It On (radio edit)
TTITLE1=Dire Tribe
TTITLE2=M57
EXTD=
EXTT0=
EXTT1=
EXTT2=
PLAYORDER=
